# xmcd
#
# Track frame offsets:
#	150
#	15330
#	33812
#	46920
#	60865
#	81562
#	103822
#	115005
#	133872
#	147497
#	162580
#	173962
#	188692
#	201850
#	214800
#	225292
#	233715
#
# Disc length: 3259 seconds
#
# Revision: 3
# Processed by: cddbd v1.5PL3 Copyright (c) Steve Scherf et al.
# Submitted via: dBpowerAMP V4.0
#
DISCID=e10cb911
DTITLE=Mississippi Fred McDowell - My Home Is In The Delta
DYEAR=1963
DGENRE=blues
TTITLE0=Waiting For My Baby
TTITLE1=I'm In Jail Again
TTITLE2=The Girl I'm Loving
TTITLE3=Going Down South, Carry My Whip
TTITLE4=Diving Duck Blues
TTITLE5=The Sun Rose This Morning
TTITLE6=Six White Horses
TTITLE7=Down On Dankin's Farm
TTITLE8=Get Right, Church
TTITLE9=Amazing Grace
TTITLE10=Jesus Gonna Make Up My Dying Bed
TTITLE11=Where Could I Go
TTITLE12=The Lord Will Make A Way
TTITLE13=Keep Your Lamp Trimmed And Burning
TTITLE14=When The Saints Go Marching In
TTITLE15=Big Road Blues
TTITLE16=When I Lay My Burden Down
EXTD=
EXTT0=
EXTT1=
EXTT2=
EXTT3=
EXTT4=
EXTT5=
EXTT6=
EXTT7=
EXTT8=
EXTT9=
EXTT10=
EXTT11=
EXTT12=
EXTT13=
EXTT14=
EXTT15=
EXTT16=
PLAYORDER=
